<svg version="1.1" viewBox="0.0 0.0 556.5275590551181 539.6955380577427" fill="none" stroke="none" stroke-linecap="square" stroke-miterlimit="10" xmlns:xlink="http://www.w3.org/1999/xlink" xmlns="http://www.w3.org/2000/svg"><clipPath id="p.0"><path d="m0 0l556.5276 0l0 539.69556l-556.5276 0l0 -539.69556z" clip-rule="nonzero"/></clipPath><g clip-path="url(#p.0)"><path fill="#000000" fill-opacity="0.0" d="m0 0l556.5276 0l0 539.69556l-556.5276 0z" fill-rule="evenodd"/><path fill="#000000" d="m397.27167 240.16273l0 0c0 32.78917 -53.281647 59.37007 -119.00787 59.37007c-65.72624 0 -119.00789 -26.580902 -119.00789 -59.37007l0 0c76.76744 14.250397 161.2483 14.250397 238.01576 0z" fill-rule="evenodd"/><path stroke="#000000" stroke-width="1.0" stroke-linejoin="round" stroke-linecap="butt" d="m397.27167 240.16273l0 0c0 32.78917 -53.281647 59.37007 -119.00787 59.37007c-65.72624 0 -119.00789 -26.580902 -119.00789 -59.37007l0 0c76.76744 14.250397 161.2483 14.250397 238.01576 0z" fill-rule="evenodd"/></g></svg>