<svg version="1.1" viewBox="0.0 0.0 556.5275590551181 539.6955380577427" fill="none" stroke="none" stroke-linecap="square" stroke-miterlimit="10" xmlns:xlink="http://www.w3.org/1999/xlink" xmlns="http://www.w3.org/2000/svg"><clipPath id="p.0"><path d="m0 0l556.5276 0l0 539.69556l-556.5276 0l0 -539.69556z" clip-rule="nonzero"/></clipPath><g clip-path="url(#p.0)"><path fill="#000000" fill-opacity="0.0" d="m0 0l556.5276 0l0 539.69556l-556.5276 0z" fill-rule="evenodd"/><path fill="#000000" d="m214.62234 119.89712l0 0c-14.707291 -22.369705 -45.913406 -27.819847 -69.70079 -12.173225q-21.53543 14.165352 -43.07086 28.330704q13.314964 20.251968 26.629929 40.503937l0 0c14.707291 22.369705 45.91339 27.819855 69.700775 12.173233l0 0c23.787384 -15.646622 31.148254 -46.464935 16.440948 -68.83465z" fill-rule="evenodd"/><path stroke="#000000" stroke-width="1.0" stroke-linejoin="round" stroke-linecap="butt" d="m214.62234 119.89712l0 0c-14.707291 -22.369705 -45.913406 -27.819847 -69.70079 -12.173225q-21.53543 14.165352 -43.07086 28.330704q13.314964 20.251968 26.629929 40.503937l0 0c14.707291 22.369705 45.91339 27.819855 69.700775 12.173233l0 0c23.787384 -15.646622 31.148254 -46.464935 16.440948 -68.83465z" fill-rule="evenodd"/><path fill="#000000" d="m348.40976 119.89712l0 0c14.707275 -22.369705 45.91339 -27.819847 69.700775 -12.173225q21.53543 14.165352 43.07086 28.330704q-13.314941 20.251968 -26.629913 40.503937l0 0c-14.707306 22.369705 -45.91342 27.819855 -69.700775 12.173233l0 0c-23.787384 -15.646622 -31.148254 -46.464935 -16.440948 -68.83465z" fill-rule="evenodd"/><path stroke="#000000" stroke-width="1.0" stroke-linejoin="round" stroke-linecap="butt" d="m348.40976 119.89712l0 0c14.707275 -22.369705 45.91339 -27.819847 69.700775 -12.173225q21.53543 14.165352 43.07086 28.330704q-13.314941 20.251968 -26.629913 40.503937l0 0c-14.707306 22.369705 -45.91342 27.819855 -69.700775 12.173233l0 0c-23.787384 -15.646622 -31.148254 -46.464935 -16.440948 -68.83465z" fill-rule="evenodd"/></g></svg>